<?xml version="1.0" encoding="UTF-8" standalone="no"?>
<svg
   viewBox="0 0 67.16416 67.35344"
   width="28"
   height="28"
   version="1.1"
   id="svg3"
   sodipodi:docname="logo.svg"
   inkscape:version="1.3.2 (091e20e, 2023-11-25)"
   xmlns:inkscape="http://www.inkscape.org/namespaces/inkscape"
   xmlns:sodipodi="http://sodipodi.sourceforge.net/DTD/sodipodi-0.dtd"
   xmlns="http://www.w3.org/2000/svg"
   xmlns:svg="http://www.w3.org/2000/svg">
  <sodipodi:namedview
     id="namedview3"
     pagecolor="#ffffff"
     bordercolor="#666666"
     borderopacity="1.0"
     inkscape:showpageshadow="2"
     inkscape:pageopacity="0.0"
     inkscape:pagecheckerboard="0"
     inkscape:deskcolor="#d1d1d1"
     inkscape:zoom="4.024"
     inkscape:cx="-41.749503"
     inkscape:cy="104.62227"
     inkscape:window-width="1600"
     inkscape:window-height="1233"
     inkscape:window-x="271"
     inkscape:window-y="72"
     inkscape:window-maximized="0"
     inkscape:current-layer="svg3" />
  <defs
     id="defs1" />
  <g
     id="g3"
     transform="matrix(0.11231569,0,0,0.11226731,-2.7369099e-4,1.2719361)"
     style="stroke-width:8.90539">
    <rect
       fill="#f05a24"
       x="289.64001"
       y="383.95999"
       width="140"
       height="76"
       id="rect1"
       style="stroke-width:8.90539" />
    <path
       fill="#4d4d4d"
       d="M 400.21,147 H 200.12 c -17,0 -30.48,12.2 -30.48,29.31 V 218 h 260 v -71 z"
       id="path1"
       style="stroke-width:8.90539" />
    <path
       fill="#4d4d4d"
       d="M 397.86,264 H 169.64 v 196 h 75 V 340 h 153.22 a 32.22,32.22 0 0 0 30.14,-21.44 24.29,24.29 0 0 0 1.66,-8.69 V 264 Z"
       id="path2"
       style="stroke-width:8.90539" />
    <path
       fill="#4d4d4d"
       d="M 299.84,601.37 A 300.26,300.26 0 0 1 0,300.68 299.84,299.84 0 1 1 511.85,513.3 297.44,297.44 0 0 1 299.84,601.37 Z m 0,-563 A 261.94,261.94 0 0 0 38.26,300.68 261.58,261.58 0 1 0 484.8,115.2 259.47,259.47 0 0 0 299.84,38.37 Z"
       id="path3"
       style="stroke-width:8.90539" />
  </g>
</svg>
